<?xml version="1.0" standalone="no"?>
<!DOCTYPE svg PUBLIC "-//W3C//DTD SVG 20010904//EN"
 "http://www.w3.org/TR/2001/REC-SVG-20010904/DTD/svg10.dtd">
<svg version="1.0" xmlns="http://www.w3.org/2000/svg"
 width="98.000000pt" height="85.000000pt" viewBox="0 0 98.000000 85.000000"
 preserveAspectRatio="xMidYMid meet">

<g transform="translate(0.000000,85.000000) scale(0.100000,-0.100000)"
fill="#000000" stroke="none">
<path d="M673 771 l-22 -28 34 16 c19 9 34 22 35 29 0 21 -24 12 -47 -17z"/>
<path d="M398 726 c-20 -7 -57 -25 -82 -40 -54 -31 -121 -115 -105 -131 7 -7
14 -4 21 9 16 28 66 82 71 76 2 -3 -3 -27 -12 -55 -12 -37 -22 -51 -41 -56
l-25 -7 28 -1 c15 -1 27 -6 27 -13 0 -7 6 -5 18 4 16 15 92 34 92 24 0 -3 -14
-21 -30 -40 -26 -29 -27 -33 -10 -29 25 7 25 2 0 -46 -21 -43 -72 -89 -78 -72
-2 6 6 28 18 48 21 36 21 36 2 56 -26 25 -53 11 -87 -47 -38 -65 -34 -74 28
-73 28 0 57 4 64 9 7 5 14 5 18 -2 3 -5 17 -10 30 -10 l24 0 -20 -35 c-21 -35
-19 -55 6 -55 16 0 55 51 55 72 0 17 73 43 78 28 2 -6 21 -10 42 -10 34 0 41
4 63 43 27 46 64 84 73 75 3 -4 -4 -24 -15 -47 -34 -66 -32 -68 70 -68 l90 0
49 54 c51 56 72 59 39 5 -10 -18 -19 -39 -19 -47 0 -24 44 -18 70 10 13 14 18
25 12 25 -7 0 -12 -3 -12 -8 0 -10 -41 -35 -47 -28 -3 3 5 21 17 41 22 36 22
37 4 71 -20 37 -39 46 -31 14 8 -32 -86 -143 -106 -124 -3 3 17 44 44 91 53
91 54 93 40 93 -5 0 -18 -16 -30 -35 -17 -29 -25 -34 -45 -29 -21 5 -30 -2
-64 -48 -21 -29 -46 -59 -56 -67 -30 -25 -31 -1 -2 50 15 28 25 53 21 57 -3 3
-21 7 -39 8 -30 1 -36 -5 -65 -53 -30 -49 -66 -82 -78 -69 -3 2 9 29 26 59 34
59 36 67 21 67 -5 0 -19 -18 -30 -39 -19 -38 -63 -81 -83 -81 -6 0 -3 8 5 18
25 27 78 121 78 137 0 8 -4 17 -10 20 -19 12 -49 -16 -83 -77 -37 -66 -82
-116 -94 -104 -11 11 50 117 72 126 11 5 14 9 7 9 -10 1 -10 6 -1 22 8 16 8
23 -1 29 -15 9 -13 11 87 50 94 37 96 37 133 -37 13 -26 25 -42 28 -35 2 7
-10 37 -27 66 l-30 54 24 16 c13 9 28 16 33 16 15 0 80 -75 101 -117 20 -40
41 -57 41 -33 0 48 -94 164 -155 192 -16 7 -24 17 -20 26 4 12 3 12 -9 3 -10
-8 -21 -9 -40 -1 -38 14 -143 12 -188 -4z m119 -41 l25 -17 -43 -36 c-24 -20
-45 -36 -48 -35 -10 3 -39 101 -33 108 11 10 71 -2 99 -20z m53 16 c0 -17 -15
-19 -35 -5 -18 13 -18 14 8 14 15 0 27 -4 27 -9z m56 -16 c19 -15 19 -15 -1
-30 -22 -18 -34 -16 -49 8 -8 13 -7 20 4 27 20 13 23 13 46 -5z m-211 -51 c13
-47 14 -58 3 -65 -20 -13 -108 -32 -115 -25 -21 21 50 146 83 146 7 0 20 -25
29 -56z m155 -4 c0 -10 -79 -45 -86 -38 -3 3 10 20 27 36 25 23 36 28 46 20 7
-6 13 -14 13 -18z m-180 -135 c-7 -9 -15 -13 -18 -10 -3 2 1 11 8 20 7 9 15
13 18 10 3 -2 -1 -11 -8 -20z m104 -27 c-26 -51 -66 -108 -75 -108 -4 0 11 32
33 70 40 70 74 100 42 38z m-214 -36 c0 -22 -65 -100 -75 -90 -13 12 46 108
67 108 4 0 8 -8 8 -18z m520 8 c0 -33 -63 -111 -77 -96 -12 12 49 106 69 106
4 0 8 -5 8 -10z m-415 -151 c-9 -17 -19 -29 -21 -26 -7 7 18 57 28 57 5 0 1
-14 -7 -31z"/>
<path d="M120 520 c-11 -11 -20 -29 -20 -40 0 -12 -7 -20 -16 -20 -28 0 -74
-56 -74 -89 0 -66 83 -96 128 -48 22 24 30 77 12 77 -5 0 -10 -13 -10 -28 0
-15 -5 -33 -12 -40 -17 -17 -64 -15 -82 4 -39 39 4 114 65 114 26 0 30 2 19
15 -16 19 -3 55 21 55 18 0 23 -10 20 -37 -1 -7 3 -13 9 -13 18 0 11 49 -9 60
-26 13 -28 13 -51 -10z"/>
<path d="M570 500 c0 -5 7 -10 15 -10 8 0 15 5 15 10 0 6 -7 10 -15 10 -8 0
-15 -4 -15 -10z"/>
<path d="M174 283 c-12 -20 -13 -25 -2 -16 12 11 20 5 47 -37 87 -134 266
-187 413 -122 56 24 129 94 158 151 18 36 19 42 5 47 -16 7 -152 -11 -206 -26
-21 -6 -37 -6 -45 0 -8 8 -13 5 -16 -8 -3 -12 -27 -26 -65 -40 -33 -12 -77
-34 -98 -47 -35 -24 -39 -25 -61 -10 -27 17 -80 86 -89 116 -9 26 -20 24 -41
-8z m596 2 c0 -15 -31 -63 -55 -85 l-27 -25 7 35 c14 65 23 80 50 80 14 0 25
-2 25 -5z m-80 -18 c0 -49 -54 -137 -85 -137 -15 0 -49 110 -38 121 9 9 75 26
106 28 9 1 17 -5 17 -12z m-130 -90 c21 -68 15 -75 -47 -58 -36 10 -103 65
-92 75 12 12 95 46 108 43 7 -1 21 -28 31 -60z m-125 -32 c39 -34 39 -35 14
-35 -32 0 -99 27 -99 40 0 8 29 29 40 29 3 0 23 -15 45 -34z"/>
<path d="M144 238 c-4 -7 -14 -24 -22 -38 -14 -24 -13 -24 3 -5 20 24 37 55
31 55 -3 0 -8 -6 -12 -12z"/>
</g>
</svg>
