<?xml version="1.0" standalone="no"?>
<!DOCTYPE svg PUBLIC "-//W3C//DTD SVG 20010904//EN"
 "http://www.w3.org/TR/2001/REC-SVG-20010904/DTD/svg10.dtd">
<svg version="1.0" xmlns="http://www.w3.org/2000/svg"
 width="95.000000pt" height="61.000000pt" viewBox="0 0 95.000000 61.000000"
 preserveAspectRatio="xMidYMid meet">

<g transform="translate(0.000000,61.000000) scale(0.100000,-0.100000)"
fill="#000000" stroke="none">
<path d="M512 598 c-12 -6 -25 -22 -28 -35 -15 -58 43 -100 92 -68 32 21 33
77 2 99 -26 18 -34 19 -66 4z m56 -20 c24 -24 8 -78 -24 -78 -17 0 -44 28 -44
45 0 17 27 45 44 45 6 0 17 -5 24 -12z"/>
<path d="M313 590 c-26 -11 -41 -56 -26 -79 31 -49 96 -44 101 8 3 26 0 31
-17 31 -12 0 -21 -4 -21 -10 0 -5 5 -10 10 -10 6 0 10 -7 10 -15 0 -19 -44
-20 -60 0 -23 27 12 73 48 63 5 -2 12 2 14 7 4 13 -31 16 -59 5z"/>
<path d="M693 515 c-12 -30 -17 -58 -12 -61 5 -3 14 7 19 21 13 34 32 28 42
-13 12 -44 33 -55 25 -12 -6 26 -3 36 13 47 28 20 25 40 -10 58 -46 24 -56 19
-77 -40z m78 10 c0 -14 -31 -19 -43 -7 -6 6 -7 15 -4 21 8 12 48 0 47 -14z"/>
<path d="M164 527 c11 -46 37 -98 45 -92 11 6 -30 115 -43 115 -4 0 -6 -10 -2
-23z"/>
<path d="M316 378 l-35 -43 70 -6 c77 -6 100 -19 79 -43 -11 -14 -15 -14 -37
4 -33 25 -58 25 -83 0 -25 -25 -26 -62 -2 -83 34 -31 63 -21 118 40 l50 57 58
-57 c59 -58 87 -69 118 -44 27 21 30 52 7 80 -25 32 -61 35 -89 7 -25 -25 -29
-24 -59 1 -21 17 -22 22 -10 30 7 5 16 9 19 9 3 0 30 2 62 4 40 3 62 10 77 25
11 11 17 22 13 25 -15 9 -112 -14 -161 -38 l-51 -26 -38 19 c-20 11 -33 20
-29 21 4 0 2 6 -5 14 -11 12 -16 11 -35 -7 -13 -11 -23 -16 -23 -10 0 5 9 18
20 28 11 10 20 22 20 27 0 19 -20 6 -54 -34z m64 -103 c15 -18 10 -45 -12 -59
-35 -22 -74 27 -48 59 16 19 44 19 60 0z m260 1 c6 -8 10 -25 8 -38 -4 -30
-46 -38 -65 -12 -17 23 -16 29 3 48 19 20 38 20 54 2z"/>
<path d="M491 124 c0 -11 3 -14 6 -6 3 7 2 16 -1 19 -3 4 -6 -2 -5 -13z"/>
<path d="M541 124 c0 -11 3 -14 6 -6 3 7 2 16 -1 19 -3 4 -6 -2 -5 -13z"/>
<path d="M744 109 c-9 -15 11 -33 30 -26 9 4 13 13 10 22 -7 17 -30 20 -40 4z
m31 -9 c3 -5 -1 -10 -10 -10 -9 0 -13 5 -10 10 3 6 8 10 10 10 2 0 7 -4 10
-10z"/>
<path d="M176 102 c-4 -7 -5 -12 -2 -12 2 0 11 -3 20 -6 9 -3 16 -1 16 6 0 6
-4 9 -9 6 -5 -4 -11 -1 -13 6 -3 9 -6 9 -12 0z"/>
<path d="M247 73 c-11 -10 -8 -20 8 -27 10 -4 15 1 15 14 0 20 -11 26 -23 13z"/>
<path d="M642 53 c4 -21 33 -25 33 -3 0 8 -8 16 -18 18 -14 3 -18 -1 -15 -15z
m28 -3 c0 -5 -4 -10 -10 -10 -5 0 -10 5 -10 10 0 6 5 10 10 10 6 0 10 -4 10
-10z"/>
<path d="M356 53 c-10 -10 -7 -21 8 -26 8 -3 17 0 20 8 5 14 -17 28 -28 18z"/>
<path d="M510 39 c0 -5 5 -7 10 -4 6 3 10 8 10 11 0 2 -4 4 -10 4 -5 0 -10 -5
-10 -11z"/>
<path d="M447 20 c3 -11 9 -17 14 -15 10 7 1 35 -11 35 -5 0 -6 -9 -3 -20z"/>
</g>
</svg>
