<?xml version="1.0" standalone="no"?>
<!DOCTYPE svg PUBLIC "-//W3C//DTD SVG 20010904//EN"
 "http://www.w3.org/TR/2001/REC-SVG-20010904/DTD/svg10.dtd">
<svg version="1.0" xmlns="http://www.w3.org/2000/svg"
 width="120.000000pt" height="54.000000pt" viewBox="0 0 120.000000 54.000000"
 preserveAspectRatio="xMidYMid meet">

<g transform="translate(0.000000,54.000000) scale(0.100000,-0.100000)"
fill="#000000" stroke="none">
<path d="M355 512 c-194 -67 -304 -221 -212 -297 17 -15 54 -40 80 -56 58 -35
67 -54 38 -82 -16 -17 -36 -22 -88 -25 -58 -3 -75 0 -117 23 -27 14 -51 24
-53 21 -14 -13 14 -50 50 -67 115 -52 294 23 255 106 -5 11 -37 40 -71 65 -33
25 -65 52 -70 61 -18 29 4 73 67 135 63 62 145 104 202 104 55 0 42 -66 -27
-132 -27 -27 -44 -48 -38 -48 32 0 111 66 135 112 17 33 9 74 -16 88 -27 15
-79 12 -135 -8z"/>
<path d="M452 298 c-6 -6 -12 -19 -12 -27 0 -13 2 -13 16 1 9 9 15 21 13 27
-3 9 -8 8 -17 -1z"/>
<path d="M1075 254 c-16 -9 -51 -38 -77 -65 -66 -70 -103 -65 -58 9 20 32 26
62 13 62 -3 0 -20 -10 -37 -23 -54 -41 -56 -41 -49 -6 8 41 -4 34 -47 -31 -32
-46 -71 -72 -87 -57 -3 4 7 27 21 52 15 25 24 50 21 55 -4 6 -26 -3 -52 -21
l-45 -31 6 33 6 34 -22 -29 c-64 -83 -83 -98 -124 -100 -33 -1 -39 2 -39 19 0
12 8 21 20 23 38 6 71 23 83 43 16 25 8 39 -24 39 -38 0 -75 -24 -117 -74 -21
-26 -47 -46 -57 -46 -26 0 -25 14 1 57 14 23 18 38 12 44 -7 7 -21 -6 -42 -37
-35 -54 -38 -66 -15 -85 14 -11 22 -10 55 9 21 13 39 18 39 13 0 -6 11 -18 25
-27 24 -16 29 -16 67 -1 22 9 45 14 50 11 5 -3 34 18 65 46 30 28 58 49 60 46
2 -2 -3 -18 -11 -35 -9 -16 -16 -40 -16 -52 0 -18 4 -20 28 -14 15 3 37 8 49
9 12 1 42 21 67 44 54 50 73 54 51 12 -29 -55 -9 -84 41 -61 19 8 29 8 45 -2
16 -10 25 -9 50 5 27 16 32 16 45 3 9 -8 18 -15 21 -15 15 0 75 44 85 63 9 18
6 18 -21 -6 -47 -39 -66 -33 -41 14 13 23 -2 26 -21 3 -20 -24 -67 -46 -74
-34 -10 16 27 73 58 90 23 13 29 13 36 1 10 -16 31 -6 31 15 0 18 -37 18 -75
-2z m-495 -24 c0 -11 -59 -44 -67 -37 -7 7 39 47 54 47 7 0 13 -4 13 -10z"/>
<path d="M1070 55 c-19 -23 14 -31 42 -10 22 17 17 16 -29 -2 -16 -6 -16 -5
-4 10 7 9 11 17 8 17 -2 0 -10 -7 -17 -15z"/>
<path d="M341 44 c0 -11 3 -14 6 -6 3 7 2 16 -1 19 -3 4 -6 -2 -5 -13z"/>
<path d="M371 44 c0 -11 3 -14 6 -6 3 7 2 16 -1 19 -3 4 -6 -2 -5 -13z"/>
<path d="M525 50 c-3 -5 1 -10 9 -10 9 0 16 5 16 10 0 6 -4 10 -9 10 -6 0 -13
-4 -16 -10z"/>
<path d="M575 50 c-3 -5 -1 -10 4 -10 6 0 11 5 11 10 0 6 -2 10 -4 10 -3 0 -8
-4 -11 -10z"/>
<path d="M700 45 c0 -8 4 -15 10 -15 5 0 7 7 4 15 -4 8 -8 15 -10 15 -2 0 -4
-7 -4 -15z"/>
<path d="M780 51 c0 -6 5 -13 10 -16 6 -3 10 1 10 9 0 9 -4 16 -10 16 -5 0
-10 -4 -10 -9z"/>
<path d="M841 44 c0 -11 3 -14 6 -6 3 7 2 16 -1 19 -3 4 -6 -2 -5 -13z"/>
<path d="M960 50 c0 -5 5 -10 11 -10 5 0 7 5 4 10 -3 6 -8 10 -11 10 -2 0 -4
-4 -4 -10z"/>
<path d="M1010 49 c0 -5 5 -7 10 -4 6 3 10 8 10 11 0 2 -4 4 -10 4 -5 0 -10
-5 -10 -11z"/>
<path d="M460 46 c0 -2 7 -7 16 -10 8 -3 12 -2 9 4 -6 10 -25 14 -25 6z"/>
</g>
</svg>
