<?xml version="1.0" standalone="no"?>
<!DOCTYPE svg PUBLIC "-//W3C//DTD SVG 20010904//EN"
 "http://www.w3.org/TR/2001/REC-SVG-20010904/DTD/svg10.dtd">
<svg version="1.0" xmlns="http://www.w3.org/2000/svg"
 width="110.000000pt" height="56.000000pt" viewBox="0 0 110.000000 56.000000"
 preserveAspectRatio="xMidYMid meet">

<g transform="translate(0.000000,56.000000) scale(0.100000,-0.100000)"
fill="#000000" stroke="none">
<path d="M10 280 l0 -270 540 0 540 0 0 270 0 270 -540 0 -540 0 0 -270z
m1055 0 l0 -245 -515 0 -515 0 -3 235 c-1 129 0 240 3 247 3 11 108 13 517 11
l513 -3 0 -245z"/>
<path d="M204 387 c-2 -7 -3 -60 -2 -118 3 -90 5 -104 21 -107 14 -3 17 4 17
47 0 66 22 69 40 5 12 -43 33 -65 47 -50 3 3 -2 25 -11 49 -15 40 -15 47 -1
73 21 41 19 61 -10 89 -27 28 -92 35 -101 12z m76 -31 c18 -23 8 -61 -17 -64
-20 -3 -23 1 -23 31 0 47 16 61 40 33z"/>
<path d="M358 395 c-3 -3 -2 -23 2 -43 37 -172 43 -192 55 -192 20 0 22 5 44
117 25 120 25 123 7 123 -14 0 -36 -76 -36 -125 0 -44 -19 -27 -25 23 -11 82
-28 116 -47 97z"/>
<path d="M510 280 l0 -121 48 3 c34 2 47 7 47 18 0 10 -8 14 -27 12 -18 -2
-28 1 -29 10 0 7 -1 53 -2 103 -2 77 -5 90 -19 93 -16 3 -18 -8 -18 -118z"/>
<path d="M614 368 c36 -174 44 -203 59 -206 18 -4 28 28 53 156 15 79 14 88
-10 79 -9 -3 -16 -27 -21 -64 -3 -33 -10 -66 -15 -73 -10 -16 -14 -2 -28 85
-5 37 -12 51 -26 53 -16 3 -18 0 -12 -30z"/>
<path d="M770 280 c0 -100 3 -120 15 -120 11 0 15 12 15 50 0 67 24 68 43 3 9
-29 21 -49 31 -51 20 -4 20 4 1 58 -13 37 -13 44 0 63 16 23 20 65 7 83 -12
19 -49 34 -81 34 l-31 0 0 -120z m68 81 c8 -5 12 -21 10 -37 -2 -21 -9 -30
-25 -32 -20 -3 -23 1 -23 31 0 45 11 56 38 38z"/>
</g>
</svg>
