<?xml version="1.0" standalone="no"?>
<!DOCTYPE svg PUBLIC "-//W3C//DTD SVG 20010904//EN"
 "http://www.w3.org/TR/2001/REC-SVG-20010904/DTD/svg10.dtd">
<svg version="1.0" xmlns="http://www.w3.org/2000/svg"
 width="130.000000pt" height="65.000000pt" viewBox="0 0 130.000000 65.000000"
 preserveAspectRatio="xMidYMid meet">

<g transform="translate(0.000000,65.000000) scale(0.100000,-0.100000)"
fill="#000000" stroke="none">
<path d="M598 507 l-86 -135 -64 -11 c-72 -12 -138 -14 -138 -4 0 9 90 162
122 207 36 50 35 59 -4 51 -81 -16 -82 -16 -221 -250 -33 -55 -91 -150 -128
-211 -38 -61 -69 -113 -69 -117 0 -18 42 -28 74 -17 27 9 43 29 105 138 40 70
80 135 88 144 16 18 62 27 148 31 62 2 62 -7 1 -102 -75 -115 -86 -138 -86
-170 0 -29 2 -31 38 -31 39 0 46 8 90 95 20 39 200 328 263 424 27 41 48 75
47 76 -2 2 -23 6 -48 10 l-45 6 -87 -134z"/>
<path d="M889 493 c-17 -27 -27 -33 -57 -34 -20 -1 -50 -4 -67 -8 l-30 -7 36
-7 c20 -4 44 -5 53 -1 26 10 19 -14 -25 -84 -22 -35 -61 -106 -85 -156 -47
-96 -64 -116 -100 -116 -38 0 -35 15 16 83 27 35 47 67 44 70 -7 7 -63 -9 -79
-23 -24 -20 -75 -118 -75 -144 0 -34 25 -39 77 -16 54 24 73 25 73 6 0 -47
105 -12 202 67 32 26 65 47 73 47 26 0 17 -49 -15 -82 -16 -16 -30 -31 -30
-34 0 -9 59 -3 106 11 56 17 124 56 108 62 -7 2 -27 -5 -45 -16 -50 -31 -61
-28 -53 15 4 22 2 45 -6 60 -12 22 -11 27 15 54 24 25 26 30 11 36 -29 11 -77
-17 -173 -103 -51 -46 -98 -83 -103 -83 -30 0 -16 39 46 137 38 60 75 120 83
135 8 15 26 41 40 58 l26 30 145 3 c102 2 152 8 170 18 24 14 23 14 -28 17
-29 2 -101 -1 -159 -7 -59 -5 -109 -8 -112 -5 -2 2 4 12 13 23 21 23 13 29
-37 28 -31 -1 -41 -7 -58 -34z"/>
<path d="M685 356 c-18 -27 -17 -57 1 -63 20 -7 65 38 62 61 -5 32 -43 33 -63
2z"/>
</g>
</svg>
